<?xml version="1.0" encoding="iso-8859-1"?>
<!-- Generator: Adobe Illustrator 19.0.0, SVG Export Plug-In . SVG Version: 6.00 Build 0)  -->
<svg xmlns="http://www.w3.org/2000/svg" xmlns:xlink="http://www.w3.org/1999/xlink" version="1.1" id="Layer_1" x="0px" y="0px" viewBox="0 0 290.627 290.627" style="enable-background:new 0 0 290.627 290.627;" xml:space="preserve" width="512px" height="512px">
<g>
	<g>
		<g>
			<path d="M271.875,253.126H126.563v-42.188h-8.091c7.814-6.877,12.778-16.922,12.778-28.125c0-20.677-16.823-37.5-37.5-37.5v9.375     c2.588,0,4.688,2.1,4.688,4.688s-2.1,4.688-4.688,4.688H37.5c-15.511,0-28.125,12.614-28.125,28.125     c0,7.209,2.747,13.767,7.219,18.75h-2.531v42.853C5.995,255.887,0,263.162,0,271.876c0,10.341,8.409,18.75,18.75,18.75h253.125     c10.341,0,18.75-8.409,18.75-18.75S282.216,253.126,271.875,253.126z M37.5,173.439h56.25c7.753,0,14.063-6.309,14.063-14.063     c0-0.309-0.009-0.623-0.033-0.928c8.419,4.866,14.095,13.964,14.095,24.366c0,15.511-12.614,28.125-28.125,28.125H37.5     c-10.341,0-18.75-8.41-18.75-18.75C18.75,181.848,27.159,173.439,37.5,173.439z M98.438,239.064v14.063H84.375v-32.813h32.813     v32.813h-9.375v-14.063H98.438z M56.25,229.689v23.438h-9.375v-32.813H75v32.813h-9.375v-23.438H56.25z M37.5,220.314v32.813     H23.438v-32.813H37.5z M271.875,281.251H18.75c-5.17,0-9.375-4.205-9.375-9.375c0-5.17,4.205-9.375,9.375-9.375h107.813h145.313     c5.17,0,9.375,4.205,9.375,9.375C281.251,277.046,277.045,281.251,271.875,281.251z" fill="#2C3E50"/>
			<rect x="98.438" y="225.001" width="9.375" height="9.375" fill="#2C3E50"/>
			<rect x="32.813" y="182.814" width="9.375" height="9.375" fill="#2C3E50"/>
			<rect x="51.563" y="182.814" width="9.375" height="9.375" fill="#2C3E50"/>
			<path d="M257.813,46.876h9.375c0-15.511-12.614-28.125-28.125-28.125v9.375C249.403,28.126,257.813,36.535,257.813,46.876z" fill="#2C3E50"/>
			<rect x="257.813" y="56.251" width="9.375" height="9.375" fill="#2C3E50"/>
			<path d="M84.375,117.189h9.375c0-8.92,2.803-17.189,7.547-24.014c4.753,10.336,11.086,18.436,16.828,25.697     c9.553,12.103,17.813,22.556,17.813,40.505c0,32.63,17.62,37.5,28.125,37.5c5.498,0,23.438-2.705,23.438-37.5     c0-22.43,0.464-28.125,4.688-28.125s4.688,5.695,4.688,28.125c0,34.795,17.939,37.5,23.438,37.5     c10.505,0,28.125-4.87,28.125-37.5c0-17.948,8.259-28.406,17.817-40.505c11.423-14.461,24.37-30.848,24.37-62.62     c0-32.067-22.167-56.25-51.563-56.25c-21.586,0-30.478,7.758-36.97,13.42c-4.12,3.6-6.262,5.33-9.905,5.33     s-5.784-1.73-9.905-5.33c-6.493-5.663-15.386-13.421-36.971-13.421c-23.236,0-42.206,15.375-48.914,38.006     c-1.683-4.552-2.648-9.441-2.648-14.569h-9.375c0,23.264-18.923,42.188-42.188,42.188v9.375     C65.452,75.001,84.375,93.924,84.375,117.189z M145.313,9.376c18.07,0,24.834,5.906,30.802,11.109     c4.303,3.759,8.752,7.641,16.073,7.641c7.321,0,11.77-3.881,16.073-7.641c5.967-5.203,12.731-11.109,30.802-11.109     c24.445,0,42.188,19.716,42.188,46.875c0,28.514-11.362,42.9-22.355,56.808c-9.75,12.347-19.833,25.111-19.833,46.317     c0,28.125-14.114,28.125-18.75,28.125c-8.808,0-14.063-10.514-14.063-28.125c0-24.178,0-37.5-14.063-37.5     c-14.063,0-14.063,13.322-14.063,37.5c0,17.611-5.255,28.125-14.063,28.125c-4.636,0-18.75,0-18.75-28.125     c0-21.202-10.083-33.97-19.833-46.313c-6.384-8.081-12.942-16.458-17.269-27.591c7.422-6.496,17.107-10.471,27.729-10.471v-9.375     c-13.045,0-24.727-5.958-32.47-15.286C105.956,26.148,122.944,9.376,145.313,9.376z M89.063,44.912     c5.152,11.203,14.198,20.25,25.402,25.402c-11.203,5.152-20.25,14.198-25.402,25.402c-5.152-11.203-14.198-20.25-25.402-25.402     C74.864,65.162,83.911,56.115,89.063,44.912z" fill="#2C3E50"/>
			<path d="M28.125,150.001H37.5c0-12.923,10.514-23.438,23.438-23.438v-9.375c-12.923,0-23.438-10.514-23.438-23.438h-9.375     c0,12.923-10.514,23.438-23.438,23.438v9.375C17.611,126.564,28.125,137.078,28.125,150.001z M32.813,110.64     c2.77,4.594,6.642,8.47,11.236,11.236c-4.594,2.77-8.466,6.642-11.236,11.236c-2.77-4.594-6.642-8.466-11.236-11.236     C26.17,119.106,30.042,115.234,32.813,110.64z" fill="#2C3E50"/>
		</g>
	</g>
</g>
<g>
</g>
<g>
</g>
<g>
</g>
<g>
</g>
<g>
</g>
<g>
</g>
<g>
</g>
<g>
</g>
<g>
</g>
<g>
</g>
<g>
</g>
<g>
</g>
<g>
</g>
<g>
</g>
<g>
</g>
</svg>
