<?xml version="1.0" encoding="iso-8859-1"?>
<!-- Generator: Adobe Illustrator 19.0.0, SVG Export Plug-In . SVG Version: 6.00 Build 0)  -->
<svg xmlns="http://www.w3.org/2000/svg" xmlns:xlink="http://www.w3.org/1999/xlink" version="1.1" id="Layer_1" x="0px" y="0px" viewBox="0 0 512 512" style="enable-background:new 0 0 512 512;" xml:space="preserve" width="512px" height="512px">
<g>
	<g>
		<path d="M464.038,258.322h-17.513v-26.005c0-4.397-3.563-7.961-7.961-7.961c-4.397,0-7.961,3.563-7.961,7.961v26.005H285.19    V112.908h145.414v76.951c0,4.397,3.563,7.961,7.961,7.961c4.397,0,7.961-3.563,7.961-7.961v-84.912    c0-4.397-3.563-7.961-7.961-7.961h-2.175l18.206-53.823c1.39-4.111-0.888-8.704-4.99-10.092L353.083,0.422    c-4.167-1.41-8.683,0.825-10.092,4.99l-30.203,89.286l-2.237-49.549c-0.196-4.344-3.977-7.764-8.311-7.593l-82.473,3.723    L213.7,18.024c-1.109-4.253-5.452-6.807-9.712-5.692l-98.596,25.721c-4.254,1.109-6.803,5.458-5.692,9.712l12.84,49.222h-5.138    c-4.397,0-7.961,3.563-7.961,7.961v153.374H47.963c-4.397,0-7.961,3.563-7.961,7.961v50.948c0,4.397,3.563,7.961,7.961,7.961    h17.513v178.848c0,4.397,3.563,7.961,7.961,7.961h365.127c4.397,0,7.961-3.563,7.961-7.961V325.191h17.513    c4.397,0,7.961-3.563,7.961-7.961v-50.948C471.999,261.886,468.435,258.322,464.038,258.322z M355.521,18.055l81.441,27.548    l-17.381,51.384h-90.76L355.521,18.055z M295.006,53.82l1.949,43.167h-86.062l-1.774-39.289L295.006,53.82z M200.304,29.747    l3.201,12.268c-1.813,0.082-3.746-0.011-5.469,0.629c-3.206,1.191-5.336,4.401-5.182,7.819l2.101,46.524h-65.961L117.115,51.45    L200.304,29.747z M115.363,180.838h85.975v35.027h-85.975V180.838z M269.269,309.27H188.07c-4.397,0-7.961,3.563-7.961,7.961    c0,4.397,3.563,7.961,7.961,7.961h81.198v170.888H81.398v-43.518h127.9c4.397,0,7.961-3.563,7.961-7.961v-50.948    c0-4.397-3.563-7.961-7.961-7.961h-127.9v-60.501h64.216c4.397,0,7.961-3.563,7.961-7.961c0-4.397-3.563-7.961-7.961-7.961h-89.69    v-35.027h213.344V309.27z M81.398,436.639v-35.027h119.94v35.027H81.398z M269.269,258.322H115.363v-26.535h93.935    c4.397,0,7.961-3.563,7.961-7.961v-50.948c0-4.397-3.563-7.961-7.961-7.961h-93.935v-52.009h153.905V258.322z M430.604,496.079    H285.19V325.191h145.414V496.079z M456.078,309.27H285.19v-35.027h170.888V309.27z" fill="#2C3E50"/>
	</g>
</g>
<g>
	<g>
		<path d="M404.599,343.235h-93.404c-4.397,0-7.961,3.563-7.961,7.961v25.474c0,13.754,11.19,24.943,24.943,24.943h59.439    c13.754,0,24.943-11.189,24.943-24.943v-25.474C412.56,346.798,408.996,343.235,404.599,343.235z M396.638,376.669    c0,4.975-4.047,9.022-9.022,9.022h-59.439c-4.975,0-9.022-4.047-9.022-9.022v-17.513h77.483V376.669z" fill="#2C3E50"/>
	</g>
</g>
<g>
	<g>
		<path d="M404.599,130.952h-93.404c-4.397,0-7.961,3.563-7.961,7.961v25.474c0,13.754,11.189,24.943,24.943,24.943h59.439    c13.754,0,24.943-11.189,24.943-24.943v-25.474C412.56,134.515,408.996,130.952,404.599,130.952z M396.638,164.386    c0,4.975-4.047,9.022-9.022,9.022h-59.439c-4.975,0-9.022-4.047-9.022-9.022v-17.513h77.483V164.386z" fill="#2C3E50"/>
	</g>
</g>
<g>
	<g>
		<path d="M175.333,130.952h-42.457c-4.397,0-7.961,3.563-7.961,7.961c0,4.397,3.563,7.961,7.961,7.961h42.457    c4.397,0,7.961-3.563,7.961-7.961C183.294,134.515,179.73,130.952,175.333,130.952z" fill="#2C3E50"/>
	</g>
</g>
<g>
	<g>
		<path d="M158.351,351.726h-50.948c-4.397,0-7.961,3.563-7.961,7.961c0,4.397,3.563,7.961,7.961,7.961h50.948    c4.397,0,7.961-3.563,7.961-7.961C166.311,355.289,162.747,351.726,158.351,351.726z" fill="#2C3E50"/>
	</g>
</g>
<g>
	<g>
		<path d="M209.299,351.726h-25.474c-4.397,0-7.961,3.563-7.961,7.961c0,4.397,3.563,7.961,7.961,7.961h25.474    c4.397,0,7.961-3.563,7.961-7.961C217.259,355.289,213.695,351.726,209.299,351.726z" fill="#2C3E50"/>
	</g>
</g>
<g>
</g>
<g>
</g>
<g>
</g>
<g>
</g>
<g>
</g>
<g>
</g>
<g>
</g>
<g>
</g>
<g>
</g>
<g>
</g>
<g>
</g>
<g>
</g>
<g>
</g>
<g>
</g>
<g>
</g>
</svg>
