<?xml version="1.0" encoding="iso-8859-1"?>
<!-- Generator: Adobe Illustrator 19.0.0, SVG Export Plug-In . SVG Version: 6.00 Build 0)  -->
<svg xmlns="http://www.w3.org/2000/svg" xmlns:xlink="http://www.w3.org/1999/xlink" version="1.1" id="Layer_1" x="0px" y="0px" viewBox="0 0 512 512" style="enable-background:new 0 0 512 512;" xml:space="preserve" width="512px" height="512px">
<g>
	<g>
		<path d="M508.859,196.647l-248.5-177.5c-2.608-1.862-6.11-1.862-8.719,0l-103.516,73.94V59.375h1.375c4.142,0,7.5-3.358,7.5-7.5    c0-4.142-3.358-7.5-7.5-7.5H69.625c-4.142,0-7.5,3.358-7.5,7.5c0,4.142,3.358,7.5,7.5,7.5H71v88.801L3.141,196.647    C1.17,198.055,0,200.328,0,202.75v44.375c0,2.81,1.57,5.383,4.068,6.669c2.497,1.286,5.504,1.067,7.791-0.566l14.766-10.547V390.5    H25.25c-4.142,0-7.5,3.358-7.5,7.5v88.75c0,4.142,3.358,7.5,7.5,7.5h461.5c4.142,0,7.5-3.358,7.5-7.5V398    c0-4.142-3.358-7.5-7.5-7.5h-1.375V242.681l14.766,10.547c1.296,0.926,2.824,1.397,4.36,1.397c1.173,0,2.35-0.275,3.431-0.831    c2.498-1.286,4.068-3.859,4.068-6.669V202.75C512,200.328,510.83,198.055,508.859,196.647z M86,59.375h47.125v44.426L86,137.462    V59.375z M497,232.551l-41.412-29.58c-3.37-2.407-8.054-1.627-10.462,1.744c-2.408,3.371-1.627,8.055,1.744,10.462l23.506,16.79    V390.5h-10.253c-4.142,0-7.5,3.358-7.5,7.5c0,4.142,3.358,7.5,7.5,7.5h19.128v73.75H32.75V405.5h19.124c4.142,0,7.5-3.358,7.5-7.5    c0-4.142-3.358-7.5-7.5-7.5H41.625V231.967L256,78.842l164.235,117.311c3.371,2.408,8.055,1.627,10.462-1.744    c2.408-3.371,1.627-8.055-1.744-10.462L260.359,63.522c-2.608-1.862-6.11-1.862-8.719,0L15,232.551v-25.942L256,34.467L497,206.61    V232.551z" fill="#2C3E50"/>
	</g>
</g>
<g>
	<g>
		<path d="M424.623,390.5h-27.998V256c0-4.142-3.358-7.5-7.5-7.5h-88.75c-4.142,0-7.5,3.358-7.5,7.5v134.5h-73.75V256    c0-4.142-3.358-7.5-7.5-7.5h-88.75c-4.142,0-7.5,3.358-7.5,7.5v134.5H87.378c-4.142,0-7.5,3.358-7.5,7.5    c0,4.142,3.358,7.5,7.5,7.5h27.997v10.25c0,4.142,3.358,7.5,7.5,7.5h88.75c4.142,0,7.5-3.358,7.5-7.5V405.5h73.75v10.25    c0,4.142,3.358,7.5,7.5,7.5h88.75c4.142,0,7.5-3.358,7.5-7.5V405.5h27.998c4.142,0,7.5-3.358,7.5-7.5    C432.123,393.858,428.765,390.5,424.623,390.5z M204.125,408.25h-73.75v-91.5h73.75V408.25z M204.125,301.75h-73.75V263.5h73.75    V301.75z M381.625,408.25h-73.75v-91.5h73.75V408.25z M381.625,301.75h-73.75V263.5h73.75V301.75z" fill="#2C3E50"/>
	</g>
</g>
<g>
	<g>
		<path d="M256,124.25c-23.71,0-43,19.29-43,43v35.5c0,4.142,3.358,7.5,7.5,7.5h71c4.142,0,7.5-3.358,7.5-7.5v-35.5    C299,143.54,279.71,124.25,256,124.25z M284,195.25h-56v-28c0-15.439,12.561-28,28-28c15.439,0,28,12.561,28,28V195.25z" fill="#2C3E50"/>
	</g>
</g>
<g>
</g>
<g>
</g>
<g>
</g>
<g>
</g>
<g>
</g>
<g>
</g>
<g>
</g>
<g>
</g>
<g>
</g>
<g>
</g>
<g>
</g>
<g>
</g>
<g>
</g>
<g>
</g>
<g>
</g>
</svg>
