<?xml version="1.0" encoding="iso-8859-1"?>
<!-- Generator: Adobe Illustrator 19.0.0, SVG Export Plug-In . SVG Version: 6.00 Build 0)  -->
<svg xmlns="http://www.w3.org/2000/svg" xmlns:xlink="http://www.w3.org/1999/xlink" version="1.1" id="Capa_1" x="0px" y="0px" viewBox="0 0 56 56" style="enable-background:new 0 0 56 56;" xml:space="preserve" width="512px" height="512px">
<g>
	<g>
	</g>
	<g>
		<path d="M55,12H37c-0.553,0-1,0.448-1,1v10v1H19c-0.553,0-1,0.448-1,1v10v1H1c-0.553,0-1,0.448-1,1v10v4v4c0,0.552,0.447,1,1,1h18    h18h18c0.553,0,1-0.448,1-1v-4v-4v-4v-4v-4v-4v-4v-4V13C56,12.448,55.553,12,55,12z M38,14h16v8H38V14z M2,48h16v2H2V48z M20,44    h16v2H20V44z M20,40h16v2H20V40z M36,38H20v-1v-1h16V38z M20,48h16v2H20V48z M38,48h16v2H38V48z M38,44h16v2H38V44z M38,40h16v2    H38V40z M38,36h16v2H38V36z M38,32h16v2H38V32z M38,28h16v2H38V28z M38,25v-1h16v2H38V25z M20,26h16v1v4v3H20V26z M2,38h16v1v4v3    H2V38z M2,52h16v2H2V52z M20,52h16v2H20V52z M38,54v-2h16v2H38z" fill="#2C3E50"/>
		<path d="M10,39c-1.654,0-3,1.346-3,3s1.346,3,3,3s3-1.346,3-3S11.654,39,10,39z M10,43c-0.552,0-1-0.449-1-1s0.448-1,1-1    s1,0.449,1,1S10.552,43,10,43z" fill="#2C3E50"/>
		<path d="M28,27c-1.654,0-3,1.346-3,3s1.346,3,3,3s3-1.346,3-3S29.654,27,28,27z M28,31c-0.552,0-1-0.449-1-1s0.448-1,1-1    c0.552,0,1,0.449,1,1S28.552,31,28,31z" fill="#2C3E50"/>
		<path d="M46,15c-1.654,0-3,1.346-3,3s1.346,3,3,3s3-1.346,3-3S47.654,15,46,15z M46,19c-0.552,0-1-0.449-1-1s0.448-1,1-1    s1,0.449,1,1S46.552,19,46,19z" fill="#2C3E50"/>
		<path d="M19,12.414l5.293,5.293c0.391,0.391,1.023,0.391,1.414,0L40,3.414V6h2V1c0-0.552-0.447-1-1-1h-5v2h2.586L25,15.586    l-5.293-5.293c-0.391-0.391-1.023-0.391-1.414,0l-18,18l1.414,1.414L19,12.414z" fill="#2C3E50"/>
	</g>
</g>
<g>
</g>
<g>
</g>
<g>
</g>
<g>
</g>
<g>
</g>
<g>
</g>
<g>
</g>
<g>
</g>
<g>
</g>
<g>
</g>
<g>
</g>
<g>
</g>
<g>
</g>
<g>
</g>
<g>
</g>
</svg>
