<?xml version="1.0" encoding="iso-8859-1"?>
<!-- Generator: Adobe Illustrator 19.0.0, SVG Export Plug-In . SVG Version: 6.00 Build 0)  -->
<svg xmlns="http://www.w3.org/2000/svg" xmlns:xlink="http://www.w3.org/1999/xlink" version="1.1" id="Layer_1" x="0px" y="0px" viewBox="0 0 512 512" style="enable-background:new 0 0 512 512;" xml:space="preserve" width="512px" height="512px">
<g>
	<g>
		<path d="M55.025,376.02c-4.328,0-7.837,3.509-7.837,7.837v19.252c0,4.328,3.509,7.837,7.837,7.837    c4.329,0,7.837-3.509,7.837-7.837v-19.252C62.862,379.527,59.354,376.02,55.025,376.02z" fill="#2C3E50"/>
	</g>
</g>
<g>
	<g>
		<path d="M82.44,376.02c-4.328,0-7.837,3.508-7.837,7.837v19.252c0,4.328,3.508,7.837,7.837,7.837c4.329,0,7.837-3.509,7.837-7.837    v-19.252C90.277,379.528,86.769,376.02,82.44,376.02z" fill="#2C3E50"/>
	</g>
</g>
<g>
	<g>
		<path d="M109.855,376.019c-4.329,0-7.837,3.509-7.837,7.837v19.252c0,4.328,3.508,7.837,7.837,7.837    c4.328,0,7.837-3.509,7.837-7.837v-19.252C117.692,379.527,114.183,376.019,109.855,376.019z" fill="#2C3E50"/>
	</g>
</g>
<g>
	<g>
		<path d="M137.27,376.02c-4.329,0-7.837,3.508-7.837,7.837v19.252c0,4.328,3.508,7.837,7.837,7.837    c4.329,0,7.837-3.509,7.837-7.837v-19.252C145.107,379.528,141.599,376.02,137.27,376.02z" fill="#2C3E50"/>
	</g>
</g>
<g>
	<g>
		<path d="M177.45,376.02c-4.328,0-7.837,3.508-7.837,7.837v19.252c0,4.328,3.508,7.837,7.837,7.837    c4.329,0,7.837-3.509,7.837-7.837v-19.252C185.287,379.528,181.779,376.02,177.45,376.02z" fill="#2C3E50"/>
	</g>
</g>
<g>
	<g>
		<path d="M204.866,376.02c-4.329,0-7.837,3.508-7.837,7.837v19.252c0,4.328,3.508,7.837,7.837,7.837s7.837-3.509,7.837-7.837    v-19.252C212.703,379.528,209.195,376.02,204.866,376.02z" fill="#2C3E50"/>
	</g>
</g>
<g>
	<g>
		<path d="M232.283,376.019c-4.329,0-7.837,3.509-7.837,7.837v19.252c0,4.328,3.508,7.837,7.837,7.837    c4.328,0,7.837-3.509,7.837-7.837v-19.252C240.12,379.527,236.612,376.019,232.283,376.019z" fill="#2C3E50"/>
	</g>
</g>
<g>
	<g>
		<path d="M127.687,270.918H61.155c-7.203,0-13.061,5.859-13.061,13.061v40.861c0,7.203,5.859,13.061,13.061,13.061h66.532    c7.203,0,13.061-5.859,13.061-13.061v-40.861C140.748,276.776,134.889,270.918,127.687,270.918z M73.54,322.227h-9.773v-9.982    h9.773V322.227z M73.54,296.572h-9.773v-9.982h9.773V296.572z M99.629,322.227H89.213v-9.982h10.416V322.227z M99.629,296.572    H89.213v-9.982h10.416V296.572z M125.074,322.227h-9.773v-9.982h9.773V322.227z M125.074,296.572h-9.773v-9.982h9.773V296.572z" fill="#2C3E50"/>
	</g>
</g>
<g>
	<g>
		<path d="M354.285,356.744c-8.923,0-17.096,3.279-23.426,8.696c-6.331-5.419-14.509-8.696-23.435-8.696    c-20.035,0-36.334,16.481-36.334,36.739c-0.001,20.256,16.299,36.738,36.334,36.738c8.926,0,17.104-3.277,23.435-8.696    c6.33,5.417,14.502,8.696,23.426,8.696c20.034,0,36.332-16.48,36.332-36.738C390.617,373.226,374.319,356.744,354.285,356.744z     M307.425,414.546c-11.392,0-20.661-9.449-20.661-21.064c-0.001-11.615,9.267-21.065,20.661-21.065    c11.39,0,20.659,9.45,20.659,21.065C328.083,405.097,318.816,414.546,307.425,414.546z M354.285,414.546    c-5.374,0-10.261-2.115-13.934-5.56c2.18-4.715,3.405-9.966,3.405-15.504c-0.001-5.538-1.226-10.791-3.405-15.505    c3.673-3.444,8.559-5.56,13.934-5.56c11.39,0,20.659,9.45,20.659,21.065C374.944,405.097,365.677,414.546,354.285,414.546z" fill="#2C3E50"/>
	</g>
</g>
<g>
	<g>
		<path d="M382.78,283.219H279.885c-4.329,0-7.837,3.509-7.837,7.837s3.508,7.837,7.837,7.837H382.78    c4.329,0,7.837-3.509,7.837-7.837S387.109,283.219,382.78,283.219z" fill="#2C3E50"/>
	</g>
</g>
<g>
	<g>
		<path d="M382.78,309.925h-69.487c-4.329,0-7.837,3.509-7.837,7.837c0,4.328,3.508,7.837,7.837,7.837h69.487    c4.329,0,7.837-3.509,7.837-7.837C390.616,313.433,387.109,309.925,382.78,309.925z" fill="#2C3E50"/>
	</g>
</g>
<g>
	<g>
		<path d="M194.864,231.428H55.025c-4.328,0-7.837,3.509-7.837,7.837c0,4.328,3.509,7.837,7.837,7.837h139.839    c4.329,0,7.837-3.509,7.837-7.837C202.701,234.936,199.193,231.428,194.864,231.428z" fill="#2C3E50"/>
	</g>
</g>
<g>
	<g>
		<path d="M493.714,46.794H235.102c-4.329,0-7.837,3.508-7.837,7.837c0,4.329,3.508,7.837,7.837,7.837h258.612    c1.416,0,2.612,1.196,2.612,2.612v40.405h-26.122c-4.329,0-7.837,3.509-7.837,7.837c0,4.328,3.508,7.837,7.837,7.837h26.122v39.53    H89.867v-39.53h345.855c4.329,0,7.837-3.509,7.837-7.837c0-4.328-3.508-7.837-7.837-7.837H89.867V65.079    c0-1.416,1.196-2.612,2.612-2.612h108.14c4.329,0,7.837-3.509,7.837-7.837c0-4.328-3.508-7.837-7.837-7.837H92.48    c-10.082,0-18.286,8.202-18.286,18.286v125.234H18.286C8.203,190.313,0,198.515,0,208.599v238.322    c0,10.082,8.203,18.286,18.286,18.286h85.16c4.329,0,7.837-3.509,7.837-7.837s-3.508-7.837-7.837-7.837h-85.16    c-1.416,0-2.612-1.196-2.612-2.612V208.599c0-1.416,1.196-2.612,2.612-2.612h401.234c1.416,0,2.612,1.196,2.612,2.612v28.593    c0,4.328,3.508,7.837,7.837,7.837s7.837-3.509,7.837-7.837v-28.593c0-10.083-8.203-18.286-18.286-18.286H89.867v-13.953h406.459    v127.042c0,1.416-1.196,2.612-2.612,2.612h-55.909v-34.342c0-4.328-3.508-7.837-7.837-7.837s-7.837,3.509-7.837,7.837v175.248    c0,1.416-1.196,2.612-2.612,2.612H144.196c-4.329,0-7.837,3.509-7.837,7.837s3.508,7.837,7.837,7.837h275.323    c10.082,0,18.286-8.203,18.286-18.286V321.688h55.909c10.082,0,18.286-8.203,18.286-18.286V65.079    C512,54.997,503.797,46.794,493.714,46.794z" fill="#2C3E50"/>
	</g>
</g>
<g>
	<g>
		<path d="M176.588,78.14h-62.694c-4.329,0-7.837,3.509-7.837,7.837c0,4.328,3.508,7.837,7.837,7.837h62.694    c4.329,0,7.837-3.509,7.837-7.837C184.424,81.649,180.917,78.14,176.588,78.14z" fill="#2C3E50"/>
	</g>
</g>
<g>
</g>
<g>
</g>
<g>
</g>
<g>
</g>
<g>
</g>
<g>
</g>
<g>
</g>
<g>
</g>
<g>
</g>
<g>
</g>
<g>
</g>
<g>
</g>
<g>
</g>
<g>
</g>
<g>
</g>
</svg>
