<?xml version="1.0" encoding="iso-8859-1"?>
<!-- Generator: Adobe Illustrator 19.0.0, SVG Export Plug-In . SVG Version: 6.00 Build 0)  -->
<svg xmlns="http://www.w3.org/2000/svg" xmlns:xlink="http://www.w3.org/1999/xlink" version="1.1" id="Layer_1" x="0px" y="0px" viewBox="0 0 512 512" style="enable-background:new 0 0 512 512;" xml:space="preserve" width="512px" height="512px">
<g>
	<g>
		<g>
			<path d="M454.932,262.763c-4.465,0-8.084,3.619-8.084,8.084v102.94l-42.785,11.61V183.453c0-4.466-3.618-8.084-8.084-8.084     c-4.466,0-8.084,3.618-8.084,8.084v212.513v45.742v19.23H191.278c-4.465,0-8.084,3.619-8.084,8.084     c0,4.466,3.62,8.084,8.084,8.084h196.617v18.725H124.104v-18.724h40.767c4.465,0,8.084-3.619,8.084-8.084     s-3.62-8.084-8.084-8.084h-40.767v-19.23v-45.742V183.454c0-4.466-3.62-8.084-8.084-8.084c-4.465,0-8.084,3.619-8.084,8.084     v201.944l-42.784-11.61v-239.55c0-24.257,28.849-43.425,54.872-55.253c0.139-0.054,0.282-0.091,0.419-0.152     c12.283-5.498,23.174-9.049,28.201-10.576l49.502,25.606v128.695c0,4.466,3.62,8.084,8.084,8.084     c4.465,0,8.084-3.618,8.084-8.084V102.225l37.969,19.64c2.329,1.206,5.098,1.206,7.429,0L300.051,101v121.557     c0,4.466,3.619,8.084,8.084,8.084c4.465,0,8.084-3.619,8.084-8.084V92.636l47.134-24.381c5.175,1.572,16.559,5.285,29.283,11.061     c0.132,0.059,0.266,0.102,0.4,0.154c25.741,11.864,53.812,30.841,53.812,54.767v109.128c0,4.466,3.618,8.084,8.084,8.084     c4.466,0,8.084-3.618,8.084-8.084V134.238c0-32.599-32.77-55.03-60.514-68.182c-19.571-55.197-57.142-65.39-58.764-65.804     c-0.155-0.04-0.312-0.057-0.467-0.087c-0.151-0.029-0.3-0.064-0.454-0.084c-0.264-0.036-0.527-0.05-0.791-0.058     C341.929,0.018,341.835,0,341.737,0H171.33c-0.003,0-0.006,0-0.011,0h-0.113c-0.087,0-0.171,0.016-0.259,0.019     c-0.275,0.009-0.549,0.024-0.823,0.061c-0.154,0.02-0.304,0.055-0.455,0.085c-0.155,0.03-0.313,0.047-0.467,0.087     c-1.61,0.412-38.927,10.55-58.554,65.261c-27.98,13.073-61.664,35.673-61.664,68.723v245.733v45.744     c0,3.65,2.445,6.847,5.967,7.802l52.985,14.377v21.131v34.891c0,4.466,3.62,8.084,8.084,8.084h279.959     c4.466,0,8.084-3.618,8.084-8.084v-34.893v-21.131l52.986-14.377c3.523-0.956,5.967-4.153,5.967-7.802V379.97V270.847     C463.017,266.381,459.398,262.763,454.932,262.763z M256.47,84.511l-30.364-31.356h60.73L256.47,84.511z M343.875,17.497     c7.683,3.475,24.533,13.654,37.393,39.696c-8.745-3.196-15.02-4.963-16.462-5.357c-0.093-0.025-0.163-0.044-0.193-0.053     c-0.488-0.131-0.983-0.216-1.48-0.254c-1.491-0.115-2.992,0.184-4.337,0.881L315.74,74.682c-1.119-3.124-4.096-5.361-7.604-5.361     c-4.466,0-8.084,3.619-8.084,8.084v5.393l-38.898,20.12l1.124-1.161l49.446-51.059c0.001,0,0.001-0.001,0.002-0.002l18.303-18.9     L343.875,17.497z M322.654,16.168l-10.339,10.677l-9.823,10.142h-92.045l-20.16-20.818H322.654z M169.062,17.492l76.154,78.641     l-1.845,1.906l-0.654,0.675l-28.401-14.692v-6.618c0-4.466-3.62-8.084-8.084-8.084c-3.897,0-7.149,2.757-7.913,6.427     l-45.117-23.337c-0.263-0.136-0.532-0.252-0.805-0.358c-0.084-0.032-0.168-0.059-0.252-0.088     c-0.197-0.069-0.396-0.13-0.596-0.183c-0.093-0.025-0.185-0.048-0.28-0.07c-0.221-0.05-0.443-0.089-0.667-0.121     c-0.066-0.009-0.129-0.023-0.195-0.03c-0.287-0.033-0.575-0.05-0.863-0.052c-0.018,0-0.036-0.003-0.054-0.003     c-0.046,0-0.093,0.009-0.139,0.01c-0.259,0.004-0.516,0.022-0.774,0.051c-0.085,0.01-0.169,0.019-0.254,0.031     c-0.314,0.045-0.625,0.104-0.935,0.187c-0.947,0.255-6.923,1.9-15.498,4.988C144.724,30.998,161.399,20.941,169.062,17.492z      M107.936,431.14l-42.784-11.609v-28.99l42.784,11.611V431.14z M446.848,419.531l-42.785,11.609v-28.988l42.785-11.611V419.531z" fill="#2C3E50"/>
			<path d="M314.46,299.973c0-4.466-3.618-8.084-8.084-8.084h-99.812c-4.465,0-8.084,3.618-8.084,8.084     c0,25.094-13.805,47.986-36.026,59.738c-2.648,1.4-4.305,4.151-4.305,7.146v63.179c0,4.466,3.62,8.084,8.084,8.084h180.475     c4.466,0,8.084-3.619,8.084-8.084v-63.177c0-2.995-1.657-5.746-4.305-7.146C328.265,347.961,314.46,325.069,314.46,299.973z      M338.624,421.952h-0.001H174.318v-50.388c22.691-13.749,37.418-37.261,39.945-63.506h84.418     c2.525,26.247,17.254,49.76,39.945,63.51V421.952z" fill="#2C3E50"/>
		</g>
	</g>
</g>
<g>
</g>
<g>
</g>
<g>
</g>
<g>
</g>
<g>
</g>
<g>
</g>
<g>
</g>
<g>
</g>
<g>
</g>
<g>
</g>
<g>
</g>
<g>
</g>
<g>
</g>
<g>
</g>
<g>
</g>
</svg>
