<?xml version="1.0" encoding="iso-8859-1"?>
<!-- Generator: Adobe Illustrator 19.0.0, SVG Export Plug-In . SVG Version: 6.00 Build 0)  -->
<svg xmlns="http://www.w3.org/2000/svg" xmlns:xlink="http://www.w3.org/1999/xlink" version="1.1" id="Capa_1" x="0px" y="0px" viewBox="0 0 511.999 511.999" style="enable-background:new 0 0 511.999 511.999;" xml:space="preserve" width="512px" height="512px">
<g>
	<g>
		<path d="M380.259,300.889c-4.78-5.432-11.994-8.674-19.298-8.674h-27.907c0.462-15.415,3.763-48.062,22.129-74.448    c21.832-31.365,13.972-70.487,7.658-101.921c-2.317-11.536-4.506-22.431-4.788-30.991c-0.329-9.972-1.84-22.023-10.695-26.731    c-2.829-1.505-8.663-3.347-15.939,1.222c-5.834,3.663-11.945,11.387-17.95,21.479c-2.009-14.644-4.861-28.728-8.388-41.04    C294.869,4.124,284.328,0,277.289,0c-24.996,0-47.918,46.071-56.496,75.112c-3.25,11.001-4.756,25.615-5.281,40.632    c-10.747-26.009-23.382-49.148-34.933-56.4c-7.277-4.568-13.11-2.726-15.939-1.222c-8.854,4.707-10.366,16.759-10.695,26.731    c-0.282,8.56-2.471,19.457-4.787,30.992c-6.315,31.434-14.174,70.555,7.658,101.92c18.281,26.265,21.621,58.994,22.109,74.448    h-27.887c-7.304,0-14.518,3.243-19.298,8.674c-4.302,4.887-6.234,10.986-5.442,17.175l21.187,165.415    c2.116,16.526,14.748,28.521,30.036,28.521h156.956c15.288,0,27.92-11.994,30.036-28.52L385.7,318.062    C386.493,311.875,384.561,305.776,380.259,300.889z M337.747,80.469c0.149,1.375,0.271,3.039,0.337,5.042    c0.336,10.214,2.683,21.899,5.168,34.269c5.857,29.156,12.496,62.201-4.468,86.571c-21.581,31.005-25.29,68.239-25.737,85.863    h-34.364c-0.105-39.69,8.621-88.862,24.381-136.654C316.508,114.801,330.116,90.018,337.747,80.469z M239.954,80.772    c4.677-15.836,12.018-31.865,20.14-43.98c7.271-10.846,12.83-15.049,15.599-16.334c6.234,7.974,18.794,44.504,20.846,95.159    c-4.87,11.776-9.354,24.144-13.173,35.897c-9.551,29.384-24.897,85.339-24.671,140.702h-5.394    c0.16-39.014-7.41-78.317-15.241-108.413C237.29,176.083,231.119,110.685,239.954,80.772z M173.215,206.352    c-16.962-24.371-10.325-57.416-4.468-86.57c2.485-12.371,4.832-24.056,5.168-34.271c0.066-2.003,0.188-3.667,0.338-5.042    c7.631,9.55,21.239,34.331,34.681,75.093c15.761,47.79,24.485,96.963,24.381,136.654h-34.364    C198.506,274.591,194.796,237.357,173.215,206.352z M344.695,480.942c-0.706,5.515-4.139,11.078-10.218,11.078H177.522    c-6.078,0-9.512-5.564-10.218-11.078l-21.186-165.415c-0.054-0.424,0.155-0.907,0.621-1.437c0.997-1.133,2.724-1.894,4.299-1.894    H360.96c1.575,0,3.303,0.761,4.3,1.894c0.467,0.531,0.676,1.014,0.621,1.437L344.695,480.942z" fill="#2C3E50"/>
	</g>
</g>
<g>
	<g>
		<path d="M239.516,324.183h-0.999c-5.518,0-9.99,4.473-9.99,9.99c0,5.518,4.473,9.99,9.99,9.99h0.999c5.518,0,9.99-4.473,9.99-9.99    C249.506,328.657,245.033,324.183,239.516,324.183z" fill="#2C3E50"/>
	</g>
</g>
<g>
	<g>
		<path d="M210.544,324.183h-40.96c-5.518,0-9.99,4.473-9.99,9.99c0,5.518,4.473,9.99,9.99,9.99h40.96c5.518,0,9.99-4.473,9.99-9.99    C220.534,328.657,216.062,324.183,210.544,324.183z" fill="#2C3E50"/>
	</g>
</g>
<g>
</g>
<g>
</g>
<g>
</g>
<g>
</g>
<g>
</g>
<g>
</g>
<g>
</g>
<g>
</g>
<g>
</g>
<g>
</g>
<g>
</g>
<g>
</g>
<g>
</g>
<g>
</g>
<g>
</g>
</svg>
